<svg width="1512" height="637" viewBox="0 0 1512 637" fill="none"
    xmlns="http://www.w3.org/2000/svg">
    <rect width="1512" height="637" fill="white"/>
    <mask id="mask0_3028_860" style="mask-type:luminance" maskUnits="userSpaceOnUse" x="0" y="0" width="1512" height="637">
        <path d="M1512 0H0V637H1512V0Z" fill="white"/>
    </mask>
    <g mask="url(#mask0_3028_860)">
        <g style="mix-blend-mode:multiply">
            <path d="M860.227 -105.437C848.071 -53.3229 832.769 -1.93508 814.464 48.3641C806.319 70.7216 797.287 93.3612 781.583 111.223C741.404 156.885 671.106 158.317 611.11 148.378C555.851 139.245 501.681 123.5 450.132 101.607C399.047 79.9145 349.635 51.9122 294.88 42.7193C240.146 33.5263 176.46 48.3036 146.966 95.3369C129.427 123.319 126.625 158.72 133.479 191.036C140.334 223.353 156.058 253.069 173.497 281.111C193.475 313.226 216.659 345.724 219.663 383.423C222.768 422.453 201.197 462.35 166.864 481.139C118.017 507.871 58.2018 491.098 3.42709 481.119C-66.1652 468.418 -140.818 468.539 -204.402 499.545C-267.987 530.571 -317.137 597.966 -310.605 668.425" stroke="white" stroke-miterlimit="10"/>
            <path d="M847.889 -115.98C836.035 -65.0361 820.996 -14.8378 802.932 34.2317C794.888 56.0448 785.978 78.12 770.656 95.5987C731.526 140.314 663.506 142.773 605.163 134.266C591.313 132.25 577.523 129.79 563.814 126.927C524.361 118.662 485.634 106.929 448.237 91.8893C398.321 71.7898 349.937 45.5616 296.432 37.1347C242.948 28.6877 182.609 44.1101 151.462 87.8169C139.749 104.267 131.745 121.988 128.359 141.12C126.04 154.143 125.536 167.671 126.907 181.117C127.532 187.266 128.5 193.415 129.83 199.584C135.193 224.26 146.583 248.412 159.062 271.374C160.292 273.652 161.542 275.91 162.812 278.188C182.327 313.428 202.93 349.453 204.059 388.846C205.148 426.787 185.109 465.394 151.663 483.9C104.086 510.25 46.0452 495.15 -6.97556 486.743C-11.1487 486.078 -15.3419 485.473 -19.5554 484.908C-83.1803 476.401 -149.708 479.868 -206.479 509.221C-266.999 540.51 -313.226 606.453 -305.908 674.916" stroke="#F9F9F9" stroke-miterlimit="10"/>
            <path d="M835.551 -126.523C824.02 -76.7484 809.222 -27.7193 791.381 20.1204C783.438 41.3892 774.648 62.8798 759.729 80.0158C721.627 123.783 655.885 127.291 599.195 120.175C585.728 118.481 572.322 116.384 558.996 113.885C520.612 106.647 482.872 96.0228 446.342 82.1931C397.595 63.7064 350.239 39.2522 298.005 31.5713C245.791 23.8702 188.415 39.857 155.978 80.3383C142.894 96.6679 132.189 112.756 126.484 131.323C122.593 143.983 120.395 157.43 120.335 171.24C120.295 177.55 120.678 183.981 121.524 190.493C124.911 216.58 136.241 242.969 148.478 267.887C149.688 270.366 150.918 272.826 152.147 275.286C171.199 313.65 189.282 353.043 188.496 394.31C187.79 431.102 169.082 468.459 136.523 486.724C90.1957 512.71 33.9291 499.283 -17.2974 492.429C-21.3294 491.885 -25.3816 491.401 -29.4539 490.957C-90.8814 484.304 -154.567 489.324 -208.455 518.939C-265.911 550.51 -309.234 614.982 -301.11 681.429" stroke="#F4F4F4" stroke-miterlimit="10"/>
            <path d="M823.213 -137.067C811.984 -88.4415 797.448 -40.6219 779.849 6.00814C772.027 26.7326 763.318 47.6587 748.802 64.4117C711.728 107.232 648.265 111.767 593.248 106.082C580.184 104.732 567.161 102.978 554.198 100.821C516.882 94.6113 480.11 85.116 444.467 72.4757C396.89 55.6017 350.562 32.9016 299.577 25.9665C248.613 19.0315 193.878 35.482 160.473 72.8184C145.938 89.0673 132.632 103.482 124.609 121.505C119.125 133.782 115.234 147.168 113.763 161.341C113.077 167.832 112.855 174.505 113.198 181.38C114.589 208.878 125.859 237.485 137.874 264.399C139.063 267.06 140.253 269.721 141.462 272.382C160.07 313.872 175.674 356.49 172.892 399.753C170.594 435.336 152.994 471.523 121.323 489.505C76.265 515.109 21.7523 503.355 -27.7002 498.073C-31.591 497.65 -35.5021 497.287 -39.4333 496.965C-98.6835 492.146 -159.506 498.739 -210.531 528.636C-264.943 560.489 -305.324 623.489 -296.393 687.94" stroke="#EEEEEE" stroke-miterlimit="10"/>
            <path d="M810.875 -147.611C799.969 -100.155 785.696 -53.5246 768.298 -8.12431C760.576 12.0558 751.988 32.3973 737.876 48.8076C701.83 90.7001 640.645 96.2642 587.301 91.9701C574.621 90.9621 561.98 89.5509 549.4 87.7566C513.153 82.5755 477.369 74.189 442.613 62.7583C396.204 47.477 350.905 26.5711 301.17 20.382C251.456 14.1928 199.06 30.9861 165.01 65.2984C148.922 81.5071 133.096 94.2281 122.774 111.687C115.698 123.581 110.134 136.907 107.231 151.422C105.88 158.075 105.074 165.01 104.913 172.247C104.328 201.157 115.517 232.001 127.29 260.871C128.46 263.733 129.629 266.596 130.798 269.459C148.942 314.093 162.167 359.836 157.308 405.196C153.639 439.529 136.927 474.567 106.142 492.287C62.3549 517.507 9.61632 507.427 -38.0822 503.718C-41.832 503.436 -45.6019 503.174 -49.392 502.972C-106.465 500.008 -164.425 508.173 -212.587 538.313C-263.935 570.427 -301.412 631.976 -291.675 694.432" stroke="#E9E9E9" stroke-miterlimit="10"/>
            <path d="M798.517 -158.154C787.913 -111.867 773.902 -66.4263 756.746 -22.2356C749.125 -2.59976 740.638 17.1772 726.929 33.2044C691.911 74.1494 633.004 80.7618 581.313 77.879C569.036 77.1935 556.779 76.1452 544.562 74.6937C509.383 70.5408 474.566 63.2831 440.697 53.0418C395.458 39.3734 351.187 20.2214 302.702 14.7983C254.258 9.35511 203.898 26.3299 169.485 57.7996C151.784 73.9881 133.499 84.9753 120.859 101.89C112.21 113.421 104.933 126.646 100.618 141.544C98.6225 148.358 97.2113 155.555 96.546 163.156C93.9857 193.476 105.114 226.539 116.646 257.404C117.795 260.448 118.924 263.512 120.073 266.577C137.753 314.336 148.7 363.143 141.684 410.66C136.806 443.702 120.819 477.652 90.9416 495.09C48.4241 519.927 -2.56054 511.521 -48.4649 509.384C-52.0937 509.222 -55.7023 509.101 -59.3311 509.021C-114.207 507.892 -169.324 517.629 -214.624 548.03C-262.907 580.427 -297.461 640.504 -286.938 700.964" stroke="#E3E3E3" stroke-miterlimit="10"/>
            <path d="M786.179 -168.698C775.897 -123.58 762.128 -79.3088 745.194 -36.3479C737.674 -17.2563 729.308 1.95619 716.002 17.6205C682.012 57.6179 625.403 65.2586 575.366 63.7869C563.472 63.4442 551.597 62.7184 539.763 61.6499C505.653 58.5251 471.824 52.3763 438.822 43.3446C394.753 31.2889 351.509 13.9111 304.275 9.23394C257.08 4.53666 208.555 21.5517 173.98 50.32C154.566 66.4682 133.943 75.7418 118.984 92.1117C108.743 103.26 99.7917 116.425 94.0461 131.666C91.385 138.661 89.3891 146.1 88.24 154.063C83.704 185.795 94.7517 221.075 106.061 253.916C107.19 257.162 108.299 260.428 109.408 263.673C126.645 314.557 135.394 366.368 126.1 416.123C120.173 447.875 104.751 480.736 75.7609 497.912C34.4934 522.387 -14.7171 515.633 -58.8474 515.068C-62.335 515.028 -65.8025 515.028 -69.2902 515.068C-121.988 515.794 -174.243 527.084 -216.66 557.747C-261.879 590.427 -293.51 649.032 -282.18 707.496" stroke="#DEDEDE" stroke-miterlimit="10"/>
            <path d="M773.841 -179.223C763.862 -135.274 750.355 -92.192 733.663 -50.4608C726.244 -31.9136 717.998 -13.2857 705.076 2.01571C672.134 41.0656 617.783 49.7546 569.419 49.674C557.928 49.674 546.437 49.2909 534.966 48.5651C501.923 46.4685 469.083 41.4487 436.948 33.6065C394.047 23.1434 351.832 7.53959 305.847 3.62855C259.923 -0.32281 207.809 10.866 178.496 42.7792C154.788 54.8551 134.386 66.4672 117.109 82.2727C105.295 93.0381 94.6308 106.142 87.474 121.746C84.1678 128.903 81.5671 136.604 79.914 144.93C73.4023 178.073 84.3694 215.591 95.4372 250.407C96.5259 253.854 97.6145 257.302 98.7032 260.749C115.476 314.758 122.169 369.553 110.477 421.545C103.622 452.027 88.6433 483.759 60.5402 500.673C20.5428 524.765 -26.9138 519.684 -69.27 520.692C-72.6165 520.773 -75.9429 520.894 -79.2895 521.055C-129.79 523.615 -179.223 536.477 -218.756 567.403C-260.911 600.344 -289.639 657.498 -277.503 713.966" stroke="#D8D8D8" stroke-miterlimit="10"/>
            <path d="M761.504 -189.766C751.847 -146.986 738.582 -105.094 722.111 -64.572C714.793 -46.5692 706.648 -28.5058 694.149 -13.5672C662.236 24.5352 610.163 34.2523 563.452 35.603C552.344 35.9256 541.235 35.9054 530.147 35.5425C498.174 34.474 466.301 30.563 435.053 23.9303C393.322 15.0801 352.135 1.25037 307.4 -1.93491C262.725 -5.12019 212.285 5.54446 182.992 35.3006C157.389 46.7112 134.83 57.2347 115.235 72.4757C101.828 82.8782 89.4902 95.9016 80.9021 111.848C76.9306 119.166 73.7453 127.15 71.5882 135.818C63.1008 170.373 74.0074 210.108 84.8333 246.9C85.9018 250.529 86.9702 254.178 88.0186 257.847C104.328 315 109.086 372.739 94.873 427.009C87.2324 456.201 72.5558 486.844 45.36 503.476C6.63265 527.184 -39.0499 523.777 -79.632 526.358C-82.8374 526.56 -86.0227 526.801 -89.2281 527.104C-137.552 531.519 -184.121 545.933 -220.792 577.141C-259.903 610.365 -285.687 666.047 -272.765 720.519" stroke="#D2D2D2" stroke-miterlimit="10"/>
            <path d="M749.166 -200.31C739.832 -158.699 726.808 -117.996 710.579 -78.6843C703.362 -61.2056 695.338 -43.7269 683.222 -29.1714C652.337 8.00368 602.542 18.749 557.504 21.4907C546.8 22.156 536.074 22.4786 525.349 22.4584C494.444 22.4181 463.559 19.636 433.178 14.213C392.616 6.97556 352.457 -5.10028 308.972 -7.51948C265.547 -9.95884 216.76 0.201781 187.488 27.8008C159.99 38.5663 135.253 47.981 113.359 62.6776C98.3806 72.6971 84.3291 85.6399 74.3298 101.969C69.7131 109.469 65.923 117.694 63.2821 126.726C52.819 162.691 63.6449 204.644 74.2491 243.432C75.2974 247.263 76.3458 251.113 77.3538 254.964C93.2197 315.242 96.1832 375.964 79.3093 432.473C70.963 460.414 56.5083 489.908 30.1995 506.278C-7.25779 529.603 -51.1864 527.87 -89.9944 532.023C-93.0587 532.345 -96.1029 532.708 -99.1672 533.131C-145.293 539.381 -189.02 555.368 -222.829 586.838C-258.875 620.323 -281.736 674.534 -268.007 727.03" stroke="#CDCDCD" stroke-miterlimit="10"/>
            <path d="M736.807 -210.854C727.776 -170.392 715.015 -130.879 699.007 -92.8167C691.891 -75.8823 683.988 -58.9882 672.275 -44.7754C642.418 -8.5479 594.901 3.24571 551.537 7.39867C541.215 8.38651 530.873 9.07195 520.531 9.41467C490.694 10.4025 460.797 8.72924 431.283 4.5158C391.91 -1.129 352.759 -11.4106 310.524 -13.0839C268.37 -14.7773 221.215 -5.1207 191.983 20.3011C162.59 30.4214 135.697 38.7475 111.464 52.8796C94.8929 62.5161 79.1681 75.3983 67.7373 92.0707C62.4554 99.7315 58.0807 108.219 54.9357 117.613C42.497 154.99 53.2423 199.181 63.6046 239.924C64.6327 243.956 65.6407 247.988 66.6286 252.04C82.0308 315.443 83.3614 379.189 63.665 437.915C54.714 464.607 40.3803 492.972 14.9787 509.08C-21.2287 532.043 -63.3833 531.982 -100.417 537.687C-103.34 538.131 -106.243 538.635 -109.167 539.159C-153.115 547.263 -193.98 564.823 -224.905 596.534C-257.887 630.302 -277.845 683.041 -263.31 733.542" stroke="#C7C7C7" stroke-miterlimit="10"/>
            <path d="M724.47 -221.396C715.761 -182.105 703.242 -143.78 687.476 -106.928C680.461 -90.5379 672.659 -74.2083 661.349 -60.3785C632.52 -25.0985 587.301 -12.2768 545.57 -6.71263C535.651 -5.38207 525.692 -4.35389 515.693 -3.66845C486.925 -1.63229 457.995 -2.21697 429.368 -5.22081C391.165 -9.25281 353.042 -17.7805 312.057 -18.6877C271.152 -19.6352 225.671 -10.5027 196.459 12.7821C165.171 22.2371 136.1 29.4746 109.57 43.0624C91.4057 52.336 73.9875 65.1376 61.1455 82.1728C55.2185 90.015 50.239 98.7443 46.59 108.502C32.1756 147.29 42.8604 193.698 52.9807 236.437C53.9887 240.651 54.9766 244.904 55.9241 249.158C70.8627 315.686 70.7215 382.516 48.0415 443.38C38.5462 468.862 24.2729 496.038 -0.241688 511.883C-35.179 534.462 -75.5594 536.075 -110.819 543.353C-113.601 543.938 -116.363 544.542 -119.125 545.208C-160.877 555.147 -198.898 574.278 -226.961 606.252C-256.878 640.302 -273.914 691.569 -258.592 740.074" stroke="#C2C2C2" stroke-miterlimit="10"/>
            <path d="M712.131 -231.94C703.725 -193.818 691.467 -156.683 675.924 -121.04C669.009 -105.195 661.328 -89.4496 650.422 -75.9625C622.621 -41.63 579.68 -27.7599 539.622 -20.8047C530.107 -19.1314 520.511 -17.7807 510.894 -16.7122C483.195 -13.6479 455.253 -13.1036 427.492 -14.918C390.459 -17.3372 353.364 -24.0908 313.629 -24.2521C273.994 -24.4537 230.146 -15.8252 200.955 5.30244C167.771 14.1124 136.523 20.241 107.674 33.2845C87.9376 42.1751 68.8259 54.9162 54.5526 72.3143C47.9603 80.3178 42.3961 89.3092 38.2633 99.4295C21.8732 139.629 32.4774 188.275 42.376 232.969C43.3638 237.384 44.3113 241.82 45.2387 246.275C59.7337 315.948 58.2822 385.923 32.4572 448.863C22.478 473.156 8.20474 499.142 -15.4228 514.705C-49.09 536.901 -87.7165 540.188 -121.202 549.038C-123.843 549.743 -126.464 550.469 -129.085 551.255C-168.659 563.049 -203.818 583.733 -229.018 615.969C-255.871 650.281 -270.003 700.097 -253.855 746.586" stroke="#BCBCBC" stroke-miterlimit="10"/>
            <path d="M699.794 -242.484C691.71 -205.531 679.694 -169.586 664.393 -135.173C657.579 -119.871 649.999 -104.691 639.495 -91.5868C612.743 -58.2018 572.06 -43.3036 533.675 -34.917C524.543 -32.9212 515.35 -31.2076 506.097 -29.7964C479.465 -25.7039 452.491 -24.0508 425.618 -24.6556C389.753 -25.4821 353.687 -30.4616 315.201 -29.877C276.817 -29.3125 237.485 -15.886 205.471 -2.25783C172.328 11.8542 136.987 10.947 105.82 23.4059C84.4904 31.9134 63.6853 44.5739 48.0009 62.3348C40.7634 70.4996 34.5944 79.7732 29.9576 90.2363C11.5919 131.846 22.1154 182.71 31.772 229.381C32.7195 233.997 33.6671 238.634 34.5541 243.271C48.5855 316.069 46.0252 389.31 16.8536 454.225C6.45108 477.369 -7.88269 502.105 -30.603 517.407C-63.0001 539.22 -99.8727 544.179 -131.564 554.602C-134.064 555.428 -136.544 556.275 -139.023 557.182C-176.42 570.81 -208.717 593.067 -231.054 625.565C-254.863 660.159 -266.052 708.503 -249.117 752.996" stroke="#B7B7B7" stroke-miterlimit="10"/>
            <path d="M687.456 -253.027C679.674 -217.243 667.941 -182.487 652.841 -149.284C646.128 -134.527 638.669 -119.911 628.569 -107.17C602.844 -74.7121 564.44 -58.7857 527.708 -49.0081C518.979 -46.6696 510.149 -44.6133 501.278 -42.8392C475.715 -37.7186 449.729 -34.9364 423.723 -34.3518C389.027 -33.5655 353.989 -36.771 316.754 -35.4404C279.639 -34.13 241.416 -21.6308 209.966 -9.73644C174.686 3.60948 137.411 1.71443 103.945 13.629C81.0432 21.7736 58.5446 34.3534 41.4287 52.4773C33.526 60.8235 26.7724 70.3391 21.6316 81.165C1.26999 124.186 11.7532 177.268 21.1679 225.934C22.0953 230.732 23.0025 235.57 23.8694 240.429C37.4371 316.352 33.9695 392.98 1.24985 459.73C-9.55591 481.764 -23.9703 505.231 -45.8036 520.27C-76.9508 541.72 -112.029 548.333 -141.967 560.328C-144.326 561.275 -146.664 562.263 -149.003 563.271C-184.202 578.754 -213.676 602.563 -233.11 635.343C-253.855 670.22 -262.12 717.092 -244.4 759.589" stroke="#B1B1B1" stroke-miterlimit="10"/>
            <path d="M675.098 -263.571C667.639 -228.957 656.147 -195.37 641.29 -163.396C634.677 -149.183 627.339 -135.152 617.622 -122.774C592.926 -91.2638 556.799 -74.289 521.741 -63.1002C513.395 -60.4189 504.968 -58.0199 496.46 -55.9031C471.966 -49.7543 446.967 -45.8634 421.848 -44.0692C388.322 -41.6701 354.312 -43.1216 318.326 -41.025C282.462 -38.9687 245.408 -27.4977 214.462 -17.2362C177.005 -4.81765 137.854 -7.53922 102.05 3.83102C77.5556 11.5926 53.3636 24.1119 34.8365 42.5785C26.2887 51.086 18.9303 60.8637 13.2855 72.0525C-9.05173 116.485 1.35079 171.804 10.5438 222.426C11.451 227.426 12.338 232.445 13.1645 237.506C26.2887 316.553 22.0954 396.729 -14.3539 465.172C-25.5225 486.119 -40.0578 508.295 -61.0041 523.052C-90.8812 544.119 -124.206 552.405 -152.369 565.972C-154.587 567.041 -156.784 568.15 -158.982 569.299C-192.004 586.616 -218.615 611.998 -235.186 645.04C-252.867 680.179 -258.229 725.599 -239.682 766.101" stroke="#ABABAB" stroke-miterlimit="10"/>
            <path d="M662.76 -274.115C655.623 -240.67 644.374 -208.273 629.738 -177.529C623.226 -163.86 615.989 -150.393 606.695 -138.378C583.027 -107.815 549.198 -89.8125 515.793 -77.2125C507.85 -74.2087 499.786 -71.4468 491.662 -68.9671C468.236 -61.7901 444.205 -56.7703 419.973 -53.7866C387.616 -49.795 354.654 -49.4522 319.899 -46.6097C285.284 -43.8074 249.419 -33.4452 218.978 -24.7562C179.323 -13.4263 138.297 -16.7931 100.195 -5.98729C74.1079 1.39127 48.2426 13.8502 28.2842 32.6796C19.071 41.3484 11.128 51.3881 4.99938 62.9397C-19.3136 108.784 -8.99166 166.32 -0.0406176 218.938C0.846422 224.139 1.69316 229.361 2.49956 234.602C15.16 316.794 10.4829 400.68 -29.9379 470.615C-41.4493 490.533 -56.1257 511.338 -76.1648 525.833C-104.772 546.518 -136.342 556.477 -162.712 571.617C-164.788 572.806 -166.844 574.036 -168.901 575.306C-199.725 594.478 -223.494 621.412 -237.203 654.716C-251.819 690.137 -254.258 734.086 -234.925 772.592" stroke="#A6A6A6" stroke-miterlimit="10"/>
            <path d="M650.422 -284.639C643.588 -252.342 632.6 -221.155 618.206 -191.62C611.815 -178.496 604.679 -165.594 595.768 -153.962C573.128 -124.347 541.578 -105.295 509.826 -91.3043C502.266 -87.9577 494.605 -84.8732 486.844 -82.0307C464.486 -73.8255 441.443 -67.6969 418.078 -63.4835C386.89 -57.879 354.957 -55.7824 321.451 -52.1737C288.106 -48.6256 253.451 -39.4326 223.473 -32.2355C181.641 -22.216 138.721 -26.0262 98.2998 -15.7647C70.6403 -8.76921 43.0614 3.60898 21.6918 22.8013C11.8336 31.6515 3.2858 41.9332 -3.34684 53.8478C-29.6355 101.103 -19.3741 160.877 -10.6649 215.45C-9.79805 220.833 -8.97149 226.256 -8.20541 231.699C4.01155 317.016 -0.967994 404.833 -45.5619 476.079C-57.3958 494.989 -72.2336 514.423 -91.3856 528.636C-118.743 548.957 -148.519 560.569 -173.134 577.282C-175.07 578.592 -176.985 579.943 -178.88 581.334C-207.527 602.341 -228.433 630.867 -239.279 664.414C-250.831 700.117 -250.367 742.594 -230.228 779.104" stroke="#A0A0A0" stroke-miterlimit="10"/>
            <path d="M638.084 -295.183C631.572 -264.056 620.827 -234.058 606.655 -205.753C600.365 -193.173 593.329 -180.855 584.841 -169.566C563.23 -140.898 533.958 -120.819 503.879 -105.396C496.722 -101.727 489.424 -98.2799 482.046 -95.0745C460.757 -85.8412 438.702 -78.5836 416.203 -73.1807C386.185 -65.9634 355.28 -62.0927 323.024 -57.7583C290.929 -53.4441 257.584 -45.4809 227.969 -39.7353C183.96 -31.1874 139.164 -35.2799 96.4252 -25.583C67.173 -18.9503 37.9006 -6.65268 15.1198 12.9025C4.59632 21.914 -4.5361 32.4577 -11.6727 44.7351C-39.9371 93.3812 -29.7563 155.393 -21.2689 211.962C-20.4222 217.547 -19.636 223.171 -18.8699 228.816C-7.1166 317.258 -12.1365 409.248 -61.1253 481.542C-73.3019 499.504 -88.2606 517.487 -106.546 531.458C-132.633 551.396 -160.655 564.702 -183.496 582.967C-185.291 584.418 -187.065 585.89 -188.819 587.402C-215.269 610.263 -233.332 640.342 -241.295 674.151C-249.803 710.116 -246.396 751.142 -225.449 785.655" stroke="#9B9B9B" stroke-miterlimit="10"/>
            <path d="M625.746 -305.727C619.537 -275.769 609.054 -246.94 595.123 -219.865C588.934 -207.83 582.019 -196.076 573.915 -185.17C553.351 -157.43 526.337 -136.322 497.932 -119.509C491.158 -115.497 484.263 -111.707 477.247 -108.159C457.027 -97.8971 435.94 -89.5307 414.328 -82.9183C385.479 -74.1083 355.602 -68.4635 324.596 -63.3631C293.771 -58.3029 261.798 -51.6299 232.485 -47.2754C186.359 -40.421 139.608 -44.5538 94.5704 -35.4213C63.7457 -29.1717 32.78 -16.9346 8.56781 2.96332C-2.60083 12.1361 -12.3381 22.9621 -19.9586 35.5822C-50.1986 85.6395 -40.0984 149.869 -31.853 208.414C-31.0466 214.2 -30.2603 220.006 -29.5346 225.852C-18.245 317.419 -23.1035 413.824 -76.709 486.944C-89.2082 504 -104.328 520.511 -121.706 534.199C-146.523 553.755 -172.792 568.734 -193.839 588.571C-195.492 590.143 -197.145 591.736 -198.737 593.369C-223.01 618.065 -238.211 649.716 -243.311 683.787C-248.754 720.034 -242.424 759.568 -220.692 792.106" stroke="#959595" stroke-miterlimit="10"/>
            <path d="M613.388 -316.27C607.501 -287.481 597.26 -259.842 583.551 -233.976C577.463 -222.485 570.669 -211.317 562.968 -200.753C543.433 -173.96 518.696 -151.804 491.944 -133.58C485.574 -129.225 479.042 -125.092 472.409 -121.181C453.257 -109.892 433.158 -100.416 412.413 -92.5943C384.733 -82.1716 355.884 -74.7527 326.128 -68.9063C296.553 -63.1003 266.031 -57.7377 236.96 -54.7339C188.738 -49.7543 140.031 -53.7662 92.6551 -45.178C60.2379 -39.3115 27.5786 -27.1348 1.95528 -6.87403C-9.85848 2.48021 -20.2005 13.5481 -28.325 26.5311C-60.5407 77.9996 -50.5212 144.467 -42.4975 204.987C-41.7113 210.955 -40.9653 216.962 -40.2597 223.01C-29.4137 317.722 -33.9295 418.804 -92.3532 492.449C-105.215 508.658 -120.456 523.616 -136.947 537.043C-160.494 556.215 -184.988 572.867 -204.281 594.277C-205.793 595.971 -207.285 597.684 -208.757 599.438C-230.832 625.989 -243.19 659.192 -245.428 693.545C-247.807 730.075 -238.574 768.137 -216.035 798.679" stroke="#909090" stroke-miterlimit="10"/>
            <path d="M601.05 -326.813C585.204 -248.331 533.817 -179.323 467.611 -134.265C401.406 -89.2077 321.411 -66.9309 241.476 -62.2739C191.238 -59.3507 140.475 -63.0602 90.8006 -55.0163C41.1264 -46.9725 -9.29376 -24.8772 -36.6307 17.3782C-70.8221 70.2578 -60.8631 138.943 -53.0813 201.439C-40.2797 304.215 -40.4611 419.268 -107.937 497.851C-141.543 537.002 -189.081 563.17 -218.696 605.425C-259.741 663.99 -256.556 749.771 -211.277 805.13" stroke="#8A8A8A" stroke-miterlimit="10"/>
        </g>
        <g style="mix-blend-mode:multiply">
            <path d="M-532.688 -123.299C-494.041 -160.313 -453.156 -195.008 -410.357 -227.143C-391.326 -241.417 -371.407 -255.468 -348.486 -261.839C-289.901 -278.148 -230.227 -240.953 -185.391 -199.867C-144.083 -162.026 -107.312 -119.267 -76.0837 -72.758C-45.1381 -26.6722 -19.0308 23.7681 21.7932 61.3665C62.6373 98.9649 124.025 121.363 174.425 98.0779C204.402 84.228 226.095 56.0846 237.989 25.2801C249.883 -5.52438 252.968 -39.0101 253.673 -72.0322C254.48 -109.832 252.807 -149.729 270.87 -182.953C289.578 -217.325 329.435 -238.997 368.465 -235.973C423.985 -231.679 464.93 -184.969 505.351 -146.685C556.719 -98.0386 619.315 -57.3557 689.513 -48.6063C759.71 -39.8568 837.709 -69.492 870.711 -132.049" stroke="#8A8A8A" stroke-miterlimit="10"/>
            <path d="M-528.111 -107.735C-490.15 -144.164 -449.85 -178.134 -407.595 -209.402C-388.806 -223.313 -369.15 -236.921 -346.631 -243.21C-301.392 -255.831 -255.447 -236.779 -216.216 -208.999C-205.531 -201.439 -195.33 -193.234 -185.795 -184.827C-144.749 -148.7 -108.037 -107.655 -76.6483 -62.8389C-45.5616 -18.4466 -19.3334 30.5221 21.2083 66.9512C43.9488 87.3733 72.3139 103.723 101.868 111.142C127.613 117.593 154.385 117.15 178.698 106.344C183.033 104.408 187.226 102.191 191.238 99.691C215.974 84.3291 233.916 59.0081 244.742 31.6913C248.23 22.9217 251.032 13.9304 253.331 4.83823C259.318 -18.9103 261.939 -43.6063 263.531 -67.8789C266.112 -106.405 267.422 -146.1 286.937 -178.961C306.311 -211.6 344.615 -232.727 382.738 -229.985C436.988 -226.074 477.369 -181.722 517.164 -145.717C520.309 -142.874 523.475 -140.072 526.7 -137.31C575.346 -95.4376 632.963 -62.0124 696.548 -55.6015C764.346 -48.7672 839.079 -78.7452 870.327 -140.092" stroke="#909090" stroke-miterlimit="10"/>
            <path d="M-523.535 -92.1512C-486.259 -127.976 -446.544 -161.219 -404.833 -191.661C-386.306 -205.188 -366.892 -218.393 -344.776 -224.582C-300.324 -237.001 -255.165 -219.139 -216.398 -192.77C-205.814 -185.593 -195.713 -177.791 -186.218 -169.787C-145.434 -135.394 -108.783 -96.0421 -77.2532 -52.9199C-46.0253 -10.2008 -19.6359 37.2357 20.5833 72.5358C44.2713 93.3208 73.342 110.255 103.723 118.319C130.113 125.315 157.812 125.335 182.932 114.569C187.427 112.654 191.762 110.416 195.935 107.876C221.619 92.3128 240.025 66.2056 251.456 38.0824C255.125 29.0709 258.129 19.8376 260.628 10.5237C267.18 -13.8095 270.648 -39.0498 273.329 -63.7458C277.684 -102.977 281.917 -142.45 302.924 -175.009C322.883 -205.934 359.695 -226.518 396.93 -224.038C449.911 -220.49 489.727 -178.517 528.898 -144.789C531.982 -142.128 535.107 -139.507 538.272 -136.906C586.092 -97.7758 642.177 -67.2133 703.503 -62.5966C768.882 -57.6574 840.37 -88.0184 869.864 -148.115" stroke="#959595" stroke-miterlimit="10"/>
            <path d="M-518.959 -76.5878C-482.368 -111.827 -443.238 -144.346 -402.091 -173.94C-383.806 -187.085 -364.674 -199.886 -342.942 -205.975C-299.295 -218.192 -254.903 -201.519 -216.579 -176.581C-206.096 -169.787 -196.076 -162.389 -186.641 -154.788C-146.12 -122.109 -109.509 -84.4703 -77.8378 -43.0415C-46.4688 -1.99573 -19.8979 43.8884 19.9987 78.0798C44.6342 99.2074 74.4105 116.747 105.598 125.456C132.653 132.996 161.24 133.5 187.186 122.775C191.843 120.859 196.338 118.601 200.652 116.041C227.284 100.276 246.174 73.3623 258.209 44.4327C262.06 35.1793 265.245 25.7041 267.987 16.1684C275.103 -8.74934 279.438 -34.5542 283.208 -59.6534C289.336 -99.6105 296.412 -138.802 319.012 -171.098C339.434 -200.31 374.875 -220.349 411.224 -218.111C462.954 -214.946 502.186 -175.331 540.732 -143.882C543.776 -141.402 546.84 -138.963 549.945 -136.544C596.938 -100.155 651.511 -72.4549 710.559 -69.6124C773.519 -66.5682 841.781 -97.2921 869.501 -156.159" stroke="#9B9B9B" stroke-miterlimit="10"/>
            <path d="M-514.362 -61.0239C-478.478 -95.6588 -439.911 -127.471 -399.309 -156.219C-381.266 -169.001 -362.396 -181.379 -341.067 -187.367C-298.227 -199.382 -254.621 -183.899 -216.72 -160.372C-206.358 -153.962 -196.419 -146.966 -187.024 -139.769C-146.765 -108.803 -110.215 -72.8579 -78.4023 -33.1427C-46.8922 6.20965 -20.0996 50.5415 19.414 83.6644C45.0172 105.115 75.479 123.279 107.493 132.653C135.193 140.717 164.687 141.705 191.459 131.02C196.258 129.105 200.914 126.847 205.39 124.246C232.969 108.26 252.343 80.5799 264.963 50.8439C268.995 41.3284 272.382 31.6113 275.325 21.8538C283.006 -3.64859 288.187 -29.9977 293.066 -55.5202C300.969 -96.2031 310.847 -135.092 335.059 -167.146C355.864 -194.685 390.035 -214.119 425.477 -212.163C475.937 -209.381 514.604 -172.126 552.525 -142.974C555.509 -140.676 558.533 -138.418 561.597 -136.18C607.784 -102.533 660.804 -77.6962 717.595 -76.6479C778.136 -75.519 843.152 -106.606 869.118 -164.223" stroke="#A0A0A0" stroke-miterlimit="10"/>
            <path d="M-509.786 -45.4404C-474.587 -79.4906 -436.605 -110.577 -396.547 -138.479C-378.746 -150.877 -360.159 -162.852 -339.212 -168.739C-297.179 -180.573 -254.339 -166.259 -216.902 -144.144C-206.64 -138.136 -196.782 -131.524 -187.448 -124.73C-147.43 -95.4775 -110.961 -61.2458 -78.9871 -23.2241C-47.3359 14.4549 -20.3013 57.174 18.8091 89.2486C45.38 111.042 76.5271 129.831 109.368 139.83C137.733 148.438 168.134 149.91 195.713 139.266C200.672 137.35 205.471 135.092 210.107 132.451C238.654 116.263 258.471 87.7769 271.696 57.2345C275.91 47.477 279.498 37.518 282.643 27.5388C290.888 1.45173 296.876 -25.482 302.904 -51.3876C312.5 -92.7962 325.181 -131.382 351.106 -163.195C372.194 -189.101 405.176 -207.91 439.73 -206.216C488.92 -203.797 527.022 -168.9 564.318 -142.047C567.262 -139.93 570.225 -137.854 573.229 -135.798C618.589 -104.872 670.078 -82.9178 724.611 -83.6638C782.752 -84.4298 844.502 -115.879 868.714 -172.287" stroke="#A6A6A6" stroke-miterlimit="10"/>
            <path d="M-505.21 -29.8773C-470.696 -63.3429 -433.299 -93.6837 -393.786 -120.738C-376.246 -132.754 -357.901 -144.305 -337.338 -150.112C-296.11 -161.744 -254.037 -148.6 -217.043 -127.915C-206.902 -122.291 -197.125 -116.102 -187.831 -109.691C-148.076 -82.1522 -111.667 -49.6341 -79.5518 -13.3058C-47.7594 22.7 -20.4628 63.8062 18.2242 94.8324C45.7829 116.928 77.5954 136.362 111.263 147.027C140.293 156.179 171.581 158.115 199.987 147.511C205.107 145.615 210.067 143.317 214.845 140.656C244.339 124.266 264.64 94.9937 278.449 63.6247C282.844 53.6254 286.634 43.4245 290.001 33.2235C298.811 6.55182 305.665 -20.9263 312.762 -47.2351C324.132 -89.3695 339.474 -127.633 367.153 -159.224C388.442 -183.517 420.315 -201.681 453.983 -200.229C501.903 -198.193 539.441 -165.655 576.112 -141.08C578.995 -139.145 581.918 -137.229 584.861 -135.375C629.395 -107.191 679.351 -88.1195 731.626 -90.6395C787.348 -93.3007 845.853 -125.133 868.311 -180.291" stroke="#ABABAB" stroke-miterlimit="10"/>
            <path d="M-500.634 -14.3135C-466.805 -47.1743 -429.993 -76.8096 -391.044 -103.018C-373.747 -114.67 -355.683 -125.798 -335.503 -131.504C-295.082 -142.934 -253.795 -130.979 -217.224 -111.727C-207.185 -106.485 -197.488 -100.699 -188.254 -94.6915C-148.761 -68.8665 -112.412 -38.0621 -80.1565 -3.40702C-48.223 30.9053 -20.6442 70.3786 17.5994 100.397C46.1459 122.815 78.6237 142.874 113.117 154.184C142.793 163.881 175.009 166.3 204.241 155.736C209.502 153.841 214.623 151.543 219.562 148.841C250.004 132.23 270.769 102.171 285.183 70.0157C289.759 59.7745 293.731 49.3114 297.319 38.8887C306.694 11.6324 314.395 -16.4102 322.6 -43.1222C335.744 -85.9823 353.667 -123.944 383.201 -155.292C404.611 -178.033 435.476 -195.491 468.236 -194.302C514.886 -192.629 551.88 -162.469 587.906 -140.172C590.748 -138.419 593.611 -136.685 596.494 -135.011C640.201 -109.57 688.625 -93.3609 738.642 -97.6752C791.945 -102.251 847.224 -134.427 867.908 -188.355" stroke="#B1B1B1" stroke-miterlimit="10"/>
            <path d="M-496.057 1.27008C-462.914 -31.0061 -426.686 -59.9155 -388.282 -85.2768C-371.226 -96.5462 -353.425 -107.271 -333.648 -112.876C-294.034 -124.105 -253.552 -113.279 -217.405 -95.4979C-207.487 -90.6192 -197.87 -85.2566 -188.698 -79.6522C-149.466 -55.561 -113.178 -26.4499 -80.7609 6.51169C-48.6863 39.1507 -20.805 76.9507 16.9748 106.001C46.5294 128.722 79.6522 149.426 114.973 161.401C145.313 171.622 178.416 174.525 208.475 164.022C213.898 162.127 219.18 159.829 224.26 157.087C255.649 140.273 276.898 109.429 291.897 76.4467C296.655 65.9635 300.828 55.2586 304.638 44.6141C314.577 16.7933 323.145 -11.8339 332.439 -38.9491C347.357 -82.535 367.799 -120.234 399.229 -151.281C420.699 -172.489 450.596 -189.202 482.469 -188.294C527.87 -187.004 564.278 -159.204 599.679 -139.185C602.461 -137.612 605.284 -136.06 608.126 -134.568C651.007 -111.868 697.899 -98.5219 745.658 -104.63C796.562 -111.102 848.575 -143.66 867.505 -196.358" stroke="#B7B7B7" stroke-miterlimit="10"/>
            <path d="M-491.46 16.8335C-459.023 -14.8379 -423.359 -43.0417 -385.499 -67.5563C-368.686 -78.4427 -351.167 -88.7646 -331.773 -94.2683C-292.965 -105.296 -253.249 -95.6392 -217.546 -79.2894C-207.728 -74.7937 -198.192 -69.8344 -189.08 -64.6331C-150.111 -42.2555 -113.883 -14.858 -81.3249 16.4101C-49.1092 47.3759 -20.9256 83.5025 16.3906 111.565C46.9733 134.568 80.7212 155.958 116.848 168.558C147.854 179.323 181.844 182.71 212.729 172.227C218.313 170.332 223.736 168.013 228.998 165.251C261.355 148.236 283.067 116.585 298.651 82.8171C303.59 72.092 307.965 61.1451 311.977 50.2789C322.48 21.8734 331.915 -7.29807 342.277 -34.8366C358.969 -79.1483 381.851 -116.626 415.276 -147.35C436.747 -167.086 465.757 -183.013 496.723 -182.367C540.853 -181.44 576.698 -156.018 611.453 -138.278C614.195 -136.887 616.957 -135.516 619.739 -134.205C661.793 -114.247 707.153 -103.764 752.654 -111.646C801.139 -120.013 849.906 -152.934 867.062 -204.402" stroke="#BCBCBC" stroke-miterlimit="10"/>
            <path d="M-486.884 32.4167C-455.132 1.33001 -420.053 -26.1279 -382.737 -49.8159C-366.186 -60.3193 -348.909 -70.238 -329.918 -75.6409C-291.916 -86.4668 -252.967 -77.9996 -217.707 -63.0812C-208.01 -58.9685 -198.555 -54.4124 -189.483 -49.6143C-150.776 -28.9503 -114.589 -3.26647 -81.8895 26.3083C-49.5327 55.5806 -21.0063 90.0138 15.826 117.129C47.4369 140.394 81.8097 162.469 118.763 175.734C150.414 187.044 185.331 190.894 217.023 180.472C222.768 178.597 228.353 176.258 233.756 173.456C267.06 156.239 289.236 123.802 305.424 89.2074C310.545 78.2404 315.101 67.0516 319.335 55.9434C330.403 26.9533 340.684 -2.78265 352.155 -30.7244C370.642 -75.7417 395.882 -113.058 431.344 -143.419C452.734 -161.724 480.917 -176.824 510.996 -176.421C553.856 -175.876 589.136 -152.813 623.267 -137.371C625.968 -136.161 628.67 -134.972 631.392 -133.843C672.619 -116.626 716.447 -109.006 759.69 -118.682C805.755 -128.964 851.277 -162.248 866.679 -212.467" stroke="#C2C2C2" stroke-miterlimit="10"/>
            <path d="M-482.307 47.9805C-451.241 17.4784 -416.747 -9.25377 -379.975 -32.0749C-363.666 -42.2154 -346.671 -51.6906 -328.063 -57.0128C-290.848 -67.6371 -252.705 -60.3593 -217.869 -46.8521C-208.273 -43.1225 -198.898 -38.9897 -189.887 -34.5747C-151.441 -15.6243 -115.315 8.34592 -82.4741 36.2272C-49.9762 63.8262 -21.1071 96.5459 15.2212 122.714C47.8603 146.24 82.858 169.001 120.638 182.911C152.954 194.765 188.758 199.1 221.277 188.697C227.163 186.822 232.909 184.484 238.473 181.641C272.725 164.203 295.385 130.979 312.158 95.5782C317.46 84.3693 322.218 72.9184 326.673 61.6086C338.305 32.0339 349.454 1.73343 362.013 -26.5914C382.274 -72.3344 409.813 -109.55 447.411 -139.467C468.7 -156.402 496.078 -170.594 525.269 -170.473C566.859 -170.312 601.575 -149.588 635.081 -136.443C637.722 -135.415 640.383 -134.407 643.044 -133.439C683.444 -118.964 725.74 -114.207 766.725 -125.678C810.392 -137.854 852.667 -171.501 866.296 -220.49" stroke="#C7C7C7" stroke-miterlimit="10"/>
            <path d="M-477.732 63.5443C-447.351 33.647 -413.422 7.6204 -377.235 -14.354C-361.167 -24.1114 -344.434 -33.1834 -326.23 -38.4049C-289.821 -48.8477 -252.444 -42.7393 -218.071 -30.6433C-208.576 -27.3169 -199.302 -23.5671 -190.331 -19.5553C-152.128 -2.31845 -116.082 19.9382 -83.08 46.126C-50.441 72.0518 -21.209 103.018 14.5952 128.278C48.2826 152.047 83.8851 175.513 122.491 190.089C155.473 202.487 192.185 207.285 225.509 196.943C231.557 195.068 237.444 192.709 243.169 189.867C278.369 172.227 301.492 138.217 318.89 102.01C324.394 90.5385 329.333 78.8659 333.99 67.3344C346.187 37.175 358.263 6.35032 371.83 -22.418C393.966 -68.8465 423.642 -106.102 463.417 -135.475C484.545 -151.079 511.196 -164.344 539.481 -164.486C579.821 -164.687 613.952 -146.342 646.833 -135.475C649.434 -134.629 652.034 -133.802 654.655 -133.016C694.249 -121.283 734.993 -119.408 773.72 -132.653C814.967 -146.725 853.997 -180.755 865.871 -228.514" stroke="#CDCDCD" stroke-miterlimit="10"/>
            <path d="M-473.135 79.1288C-443.459 49.8161 -410.094 24.5355 -374.452 3.38769C-358.626 -5.98671 -342.175 -14.6555 -324.354 -19.7762C-288.751 -30.0175 -252.141 -25.0984 -218.212 -14.4338C-208.817 -11.4904 -199.624 -8.14387 -190.713 -4.53523C-152.772 10.988 -116.787 31.5512 -83.6435 56.0254C-50.8634 80.2577 -21.2685 109.49 14.0115 133.863C48.7674 157.854 84.9546 182.066 124.388 197.266C158.014 210.189 195.633 215.491 229.784 205.189C235.993 203.314 242.041 200.956 247.908 198.073C284.075 180.231 307.662 145.435 325.645 108.401C331.33 96.6882 336.471 84.7736 341.35 73.0203C354.111 42.2763 367.033 10.8872 381.71 -18.2843C405.62 -65.4184 437.452 -102.775 479.506 -131.523C500.452 -145.837 526.378 -158.134 553.775 -158.537C592.846 -159.122 626.412 -143.135 658.668 -134.547C661.208 -133.862 663.768 -133.237 666.329 -132.632C705.096 -123.62 744.308 -124.628 780.777 -139.668C819.605 -155.655 855.389 -190.027 865.51 -236.557" stroke="#D2D2D2" stroke-miterlimit="10"/>
            <path d="M-468.559 94.6912C-439.569 65.9632 -406.788 41.4083 -371.69 21.1072C-356.126 12.0957 -339.918 3.85025 -322.499 -1.16959C-287.703 -11.2093 -251.859 -7.47968 -218.373 1.77376C-209.099 4.33407 -199.987 7.27745 -191.117 10.4829C-153.438 24.2723 -117.513 43.1421 -84.2082 65.9229C-51.2869 88.4819 -21.3292 115.94 13.4267 139.426C49.251 163.638 86.0229 188.576 126.282 204.422C160.575 217.889 199.08 223.655 234.058 213.393C240.408 211.539 246.617 209.16 252.645 206.236C289.76 188.193 313.811 152.591 332.398 114.771C338.265 102.816 343.587 90.6391 348.688 78.664C362.013 47.3354 375.803 15.4019 391.568 -14.1929C417.252 -62.0528 451.201 -99.631 495.553 -127.593C516.298 -140.677 541.518 -151.946 568.028 -152.591C605.828 -153.539 638.83 -139.931 670.461 -133.621C672.961 -133.117 675.461 -132.673 677.961 -132.25C715.902 -125.98 753.581 -129.851 787.772 -146.684C824.181 -164.566 856.72 -199.322 865.086 -244.602" stroke="#D8D8D8" stroke-miterlimit="10"/>
            <path d="M-463.982 110.255C-435.678 82.1318 -403.482 58.2825 -368.928 38.8281C-353.606 30.1997 -337.66 22.3574 -320.645 17.4384C-286.655 7.60033 -251.577 10.1405 -218.555 17.9827C-209.382 20.16 -200.35 22.7002 -191.54 25.5024C-154.123 37.5782 -118.259 54.7344 -84.8131 75.8218C-51.7507 96.7075 -21.4099 122.391 12.8016 144.991C49.7146 169.384 87.051 195.088 128.117 211.599C163.074 225.611 202.487 231.86 238.271 221.639C244.783 219.784 251.153 217.405 257.322 214.442C295.384 196.177 319.919 159.808 339.091 121.162C345.139 108.965 350.663 96.5462 355.965 84.3494C369.855 52.4563 384.492 19.9382 401.345 -10.0599C428.803 -58.6253 464.789 -96.5664 511.52 -123.641C532.063 -135.536 556.598 -145.717 582.201 -146.644C618.731 -147.974 651.168 -136.725 682.174 -132.693C684.614 -132.371 687.073 -132.108 689.512 -131.867C726.627 -128.339 762.774 -135.072 794.707 -153.68C828.717 -173.457 858.01 -208.575 864.602 -252.625" stroke="#DEDEDE" stroke-miterlimit="10"/>
            <path d="M-459.406 125.839C-431.787 98.3004 -400.176 75.1768 -366.166 56.5893C-351.086 48.3439 -335.422 40.925 -318.79 36.0866C-285.607 26.4502 -251.294 27.8008 -218.716 34.2117C-209.644 36.006 -200.713 38.1228 -191.963 40.542C-154.809 50.9042 -119.004 66.3468 -85.3977 85.7609C-52.1942 104.953 -21.4501 128.863 12.1969 150.595C50.1985 175.15 88.0993 201.641 129.992 218.797C165.594 233.352 205.914 240.065 242.525 229.885C249.198 228.03 255.709 225.631 262.04 222.647C301.049 204.181 326.068 167.006 345.825 127.573C352.054 115.134 357.78 102.474 363.303 90.0549C377.758 57.5772 393.261 24.5148 411.204 -5.88649C440.436 -55.1777 478.437 -93.6228 527.587 -119.649C547.909 -130.415 571.758 -139.467 596.474 -140.656C631.734 -142.37 663.627 -133.459 693.988 -131.725C696.387 -131.584 698.786 -131.483 701.185 -131.443C737.473 -130.657 772.108 -140.253 801.763 -160.655C833.354 -182.347 859.401 -217.829 864.239 -260.648" stroke="#E3E3E3" stroke-miterlimit="10"/>
            <path d="M-454.81 141.402C-427.896 114.468 -396.85 92.0705 -363.404 74.3095C-348.566 66.427 -333.164 59.4314 -316.935 54.6938C-284.558 45.259 -251.012 45.4202 -218.877 50.4199C-209.926 51.811 -201.056 53.5447 -192.367 55.5607C-155.474 64.2093 -119.73 77.9383 -85.9824 95.659C-52.6377 113.178 -21.5107 135.273 11.592 156.179C50.7024 180.875 89.1475 208.192 131.867 225.993C168.134 241.093 209.362 248.29 246.779 238.15C253.593 236.315 260.286 233.896 266.757 230.872C306.734 212.204 332.196 174.243 352.558 133.983C358.969 121.303 364.876 108.38 370.621 95.7396C385.641 62.6772 402.011 29.0503 421.042 -1.75417C452.048 -51.7711 492.005 -90.9017 543.614 -115.698C563.734 -125.355 586.898 -133.258 610.707 -134.709C644.717 -136.786 676.025 -130.254 705.761 -130.818C708.1 -130.859 710.459 -130.939 712.797 -131.081C748.259 -133.036 781.361 -145.495 808.759 -167.691C837.93 -191.278 860.731 -227.123 863.816 -268.713" stroke="#E9E9E9" stroke-miterlimit="10"/>
            <path d="M-450.233 156.986C-424.005 130.637 -393.543 108.965 -360.642 92.0505C-346.067 84.551 -330.927 77.9586 -315.081 73.3218C-283.51 64.0684 -250.73 62.9798 -219.039 66.6489C-210.188 67.6367 -201.419 68.9875 -192.77 70.6003C-156.119 77.5353 -120.436 89.5506 -86.547 105.578C-53.0814 121.424 -21.531 141.684 11.0274 161.764C51.2667 186.581 90.2361 214.724 133.782 233.17C170.695 248.794 212.829 256.475 251.073 246.395C258.048 244.561 264.882 242.142 271.515 239.077C312.44 220.187 338.386 181.44 359.332 140.374C365.924 127.451 372.033 114.287 378 101.425C393.584 67.7778 410.8 33.6067 430.92 2.37887C463.72 -48.3437 505.593 -88.3412 559.702 -111.747C579.62 -120.355 602.078 -127.028 625 -128.742C657.74 -131.201 688.484 -127.028 717.595 -129.871C719.893 -130.092 722.192 -130.355 724.47 -130.677C759.105 -135.374 790.675 -150.716 815.815 -174.686C842.587 -200.189 862.122 -236.396 863.453 -276.736" stroke="#EEEEEE" stroke-miterlimit="10"/>
            <path d="M-445.657 172.55C-420.115 146.786 -390.237 125.84 -357.881 109.772C-343.547 102.656 -328.669 96.4665 -313.226 91.9305C-282.442 82.8786 -250.448 80.6005 -219.22 82.8383C-210.471 83.4431 -201.782 84.3907 -193.194 85.6003C-156.805 90.8015 -121.182 101.123 -87.152 115.457C-53.5453 129.63 -21.5917 148.056 10.4022 167.309C51.7705 192.206 91.264 221.217 135.636 240.328C173.214 256.497 216.236 264.661 255.306 254.601C262.443 252.767 269.418 250.328 276.212 247.243C318.084 228.152 344.494 188.618 366.045 146.746C372.819 133.581 379.129 120.175 385.298 107.091C401.446 72.8591 419.529 38.1234 440.738 6.49238C475.312 -44.9559 519.1 -86.0219 575.709 -107.815C595.445 -115.415 617.178 -120.838 639.213 -122.814C670.683 -125.636 700.862 -123.842 729.328 -128.963C731.566 -129.366 733.824 -129.809 736.061 -130.293C769.89 -137.732 799.908 -155.937 822.79 -181.701C847.143 -209.099 863.452 -245.669 863.009 -284.779" stroke="#F4F4F4" stroke-miterlimit="10"/>
            <path d="M-441.081 188.113C-416.224 162.954 -386.931 142.713 -355.119 127.512C-341.027 120.779 -326.431 114.993 -311.371 110.558C-281.393 101.708 -250.186 98.2401 -219.381 99.0666C-210.753 99.2884 -202.145 99.8125 -193.597 100.639C-157.47 104.127 -121.908 112.735 -87.7164 125.375C-53.9685 137.854 -21.6117 154.446 9.81771 172.893C52.3351 197.851 92.3325 227.748 137.531 247.505C175.775 264.217 219.703 272.846 259.58 262.846C266.858 261.012 274.014 258.573 280.95 255.448C323.769 236.155 350.663 195.814 372.819 153.136C379.774 139.729 386.285 126.081 392.656 112.755C409.369 77.939 428.319 42.6388 450.616 10.6045C486.965 -41.5494 532.667 -83.8854 591.797 -103.864C611.392 -110.476 632.379 -114.629 653.506 -116.867C683.706 -120.073 713.321 -120.637 741.162 -128.036C743.359 -128.62 745.557 -129.245 747.734 -129.911C780.736 -140.091 809.222 -161.159 829.846 -188.717C851.78 -218.01 864.844 -254.963 862.646 -292.844" stroke="#F9F9F9" stroke-miterlimit="10"/>
            <path d="M-436.484 203.697C-380.338 146.604 -299.597 116.868 -219.542 115.275C-139.487 113.702 -60.2981 138.721 9.21362 178.477C52.9003 203.455 93.3816 234.3 139.387 254.701C185.392 275.103 239.703 284.135 285.668 263.653C343.204 238.029 372.376 175.049 399.975 118.46C445.395 25.3815 508.375 -70.9027 607.825 -99.8928C657.358 -114.327 711.487 -110.295 759.347 -129.508C825.734 -156.139 869.905 -229.743 862.203 -300.848" stroke="white" stroke-miterlimit="10"/>
        </g>
    </g>
    <g style="mix-blend-mode:color">
        <rect width="1512" height="637" fill="#0759D4"/>
    </g>
</svg>
