<svg width="36" height="36" viewBox="0 0 36 36" fill="none" xmlns="http://www.w3.org/2000/svg">
<path d="M18.0012 1.1254C15.5189 1.1254 13.1579 1.65982 11.0337 2.62393C10.7429 2.75595 10.6202 3.10321 10.7634 3.38861L11.7687 5.40241C11.9036 5.67286 12.2282 5.78831 12.5037 5.66388C14.1828 4.91415 16.0412 4.50149 18.0012 4.50149C25.4637 4.50149 31.5001 10.5379 31.5001 18.0004C31.5001 20.8077 30.6361 23.4018 29.171 25.5623L27.3978 23.788C27.2767 23.6666 27.1068 23.6073 26.9364 23.6264C26.6521 23.6593 26.438 23.9005 26.4387 24.1867V30.3742C26.4376 30.6849 26.6884 30.9377 26.999 30.9389H33.1854C33.6908 30.9432 33.9445 30.33 33.5842 29.9755L31.5902 27.9814C33.6474 25.1847 34.8762 21.7357 34.8762 18.0003C34.8762 8.68721 27.3144 1.1254 18.0012 1.1254ZM2.81152 5.06179C2.31128 5.06198 2.0601 5.66609 2.41272 6.02091L4.40784 8.01603C2.35033 10.813 1.12622 14.2644 1.12622 18.0004C1.12622 27.3135 8.68809 34.8754 18.0012 34.8754C20.4836 34.8754 22.8445 34.3366 24.9688 33.3725C25.2591 33.24 25.3813 32.8929 25.2379 32.6078L24.2294 30.594C24.0945 30.326 23.7731 30.2109 23.4988 30.3326C21.8197 31.0823 19.9612 31.4993 18.0012 31.4993C10.5387 31.4993 4.50232 25.4629 4.50232 18.0004C4.50232 15.1941 5.36129 12.5968 6.82483 10.4363L8.60462 12.2117C8.95944 12.5643 9.56352 12.3131 9.56372 11.8129V5.62651C9.56484 5.31414 9.31139 5.0606 8.99903 5.06179H2.81152ZM19.0977 8.43678C18.9142 8.44528 18.7464 8.54413 18.6483 8.69935L11.9016 19.3869C11.6651 19.7604 11.932 20.2482 12.374 20.2504H16.8301L16.3148 26.9565C16.2735 27.537 17.0331 27.7905 17.3486 27.3014L24.1008 16.6128C24.3387 16.2373 24.0675 15.7472 23.6229 15.7493H19.168L19.6865 9.04321C19.7134 8.7048 19.4367 8.41928 19.0977 8.43678Z" fill="white"/>
</svg>
